<?xml version="1.0" ?><svg style="enable-background:new 0 0 24 24;" version="1.1" viewBox="0 0 24 24" xml:space="preserve" xmlns="http://www.w3.org/2000/svg" xmlns:xlink="http://www.w3.org/1999/xlink"><style type="text/css">
	.st0{opacity:0.2;fill:none;stroke:#000000;stroke-width:5.000000e-02;stroke-miterlimit:10;}
</style><g id="grid_system"/><g id="_icons"><g><path d="M20,9.9c0-0.1,0-0.2-0.1-0.3c0,0,0-0.1,0-0.1c0-0.1-0.1-0.2-0.2-0.3l-7-7c-0.1-0.1-0.2-0.1-0.3-0.2c0,0-0.1,0-0.1,0    c-0.1,0-0.2,0-0.3-0.1c0,0,0,0-0.1,0H8C5.8,2,4,3.8,4,6v12c0,2.2,1.8,4,4,4h8c2.2,0,4-1.8,4-4L20,9.9C20,10,20,10,20,9.9z M13,5.4    L16.6,9H15c-1.1,0-2-0.9-2-2V5.4z M18,18c0,1.1-0.9,2-2,2H8c-1.1,0-2-0.9-2-2V6c0-1.1,0.9-2,2-2h3v3c0,2.2,1.8,4,4,4h3V18z"/><path d="M9,13h2c0.6,0,1-0.4,1-1s-0.4-1-1-1H9c-0.6,0-1,0.4-1,1S8.4,13,9,13z"/><path d="M9,15c-0.6,0-1,0.4-1,1s0.4,1,1,1h6c0.6,0,1-0.4,1-1s-0.4-1-1-1H9z"/></g></g></svg>